<svg width="1024" height="1024" viewBox="0 0 1024 1024" fill="none" xmlns="http://www.w3.org/2000/svg">
<path d="M550.711 235.316H367.038V257.236H550.711V235.316Z" fill="url(#paint0_linear_52_676)"/>
<path d="M576.745 253.569H341.004V273.717H576.745V253.569Z" fill="url(#paint1_linear_52_676)"/>
<path d="M756.562 870.513C756.562 895.478 736.117 915.938 711.125 915.938H206.625C181.633 915.938 161.188 895.478 161.188 870.513V311.889C161.188 286.883 181.633 266.438 206.625 266.438H711.111C736.117 266.438 756.562 286.883 756.562 311.889V870.513Z" fill="#A0A7AB"/>
<path d="M725.129 854.519C725.129 872.259 709.5 886.737 690.381 886.737H227.369C208.249 886.737 192.634 872.259 192.634 854.519V327.856C192.634 310.13 208.249 295.638 227.369 295.638H690.381C709.5 295.638 725.129 310.13 725.129 327.856V854.519Z" fill="#02D6B4"/>
<path d="M246.65 324.96C234.256 324.96 234.256 306.355 246.65 306.355C259.072 306.355 259.072 324.96 246.65 324.96Z" fill="#02FFD6"/>
<path d="M285.405 320.562C272.997 320.562 272.997 301.957 285.405 301.957C297.813 301.957 297.813 320.562 285.405 320.562Z" fill="#02FFD6"/>
<path d="M362.871 328.235C350.462 328.235 350.462 309.629 362.871 309.629C375.279 309.629 375.279 328.235 362.871 328.235Z" fill="#02FFD6"/>
<path d="M401.611 315.651C389.203 315.651 389.203 297.045 401.611 297.045C414.019 297.045 414.019 315.651 401.611 315.651Z" fill="#02FFD6"/>
<path d="M440.351 331.442C427.943 331.442 427.943 312.836 440.351 312.836C452.759 312.836 452.759 331.442 440.351 331.442Z" fill="#02FFD6"/>
<path d="M459.727 318.195C447.306 318.195 447.306 299.589 459.727 299.589C472.122 299.589 472.122 318.195 459.727 318.195Z" fill="#02FFD6"/>
<path d="M498.454 329.872C486.045 329.872 486.045 311.267 498.454 311.267C510.862 311.267 510.862 329.872 498.454 329.872Z" fill="#02FFD6"/>
<path d="M537.18 327.49C524.772 327.49 524.772 308.885 537.18 308.885C549.588 308.885 549.588 327.49 537.18 327.49Z" fill="#02FFD6"/>
<path d="M556.557 316.733C544.149 316.733 544.149 298.128 556.557 298.128C568.965 298.128 568.965 316.733 556.557 316.733Z" fill="#02FFD6"/>
<path d="M595.297 322.213C582.889 322.213 582.889 303.608 595.297 303.608C607.705 303.608 607.705 322.213 595.297 322.213Z" fill="#02FFD6"/>
<path d="M517.817 312.904C510.523 312.904 510.523 301.957 517.817 301.957C525.11 301.957 525.124 312.904 517.817 312.904Z" fill="#02FFD6"/>
<path d="M653.401 310.522C646.107 310.522 646.107 299.576 653.401 299.576C660.694 299.576 660.694 310.522 653.401 310.522Z" fill="#02FFD6"/>
<path d="M614.66 309.007C607.367 309.007 607.367 298.06 614.66 298.06C621.954 298.06 621.954 309.007 614.66 309.007Z" fill="#02FFD6"/>
<path d="M711.503 323.661C704.21 323.661 704.21 312.714 711.503 312.714C718.797 312.714 718.797 323.661 711.503 323.661Z" fill="#02FFD6"/>
<path d="M479.077 310.522C471.784 310.522 471.784 299.576 479.077 299.576C486.371 299.576 486.371 310.522 479.077 310.522Z" fill="#02FFD6"/>
<path d="M420.974 316.002C413.681 316.002 413.681 305.056 420.974 305.056C428.267 305.056 428.267 316.002 420.974 316.002Z" fill="#02FFD6"/>
<path d="M343.507 310.522C336.214 310.522 336.214 299.576 343.507 299.576C350.8 299.576 350.8 310.522 343.507 310.522Z" fill="#02FFD6"/>
<path d="M324.131 322.917C312.71 322.917 312.71 305.786 324.131 305.786C335.551 305.786 335.551 322.917 324.131 322.917Z" fill="#02FFD6"/>
<path d="M304.768 309.007C297.475 309.007 297.475 298.06 304.768 298.06C312.061 298.06 312.061 309.007 304.768 309.007Z" fill="#02FFD6"/>
<path d="M382.247 311.821C374.954 311.821 374.954 300.875 382.247 300.875C389.541 300.875 389.541 311.821 382.247 311.821Z" fill="#02FFD6"/>
<path d="M266.028 311.821C258.734 311.821 258.734 300.875 266.028 300.875C273.321 300.875 273.321 311.821 266.028 311.821Z" fill="#02FFD6"/>
<path d="M207.924 320.563C200.631 320.563 200.631 309.616 207.924 309.616C215.217 309.616 215.217 320.563 207.924 320.563Z" fill="#02FFD6"/>
<path d="M227.301 309.629C220.008 309.629 220.008 298.682 227.301 298.682C234.594 298.682 234.594 309.629 227.301 309.629Z" fill="#02FFD6"/>
<path d="M575.92 316.733C568.627 316.733 568.627 305.786 575.92 305.786C583.214 305.786 583.214 316.733 575.92 316.733Z" fill="#02FFD6"/>
<path d="M634.024 325.298C621.616 325.298 621.616 306.693 634.024 306.693C646.432 306.693 646.432 325.298 634.024 325.298Z" fill="#02FFD6"/>
<path d="M672.764 332.971C660.369 332.971 660.369 314.365 672.764 314.365C685.185 314.365 685.185 332.971 672.764 332.971Z" fill="#02FFD6"/>
<path d="M692.126 320.562C679.718 320.562 679.718 301.957 692.126 301.957C704.535 301.957 704.535 320.562 692.126 320.562Z" fill="#02FFD6"/>
<path d="M672.777 857.848C685.172 857.848 685.172 876.453 672.777 876.453C660.356 876.453 660.356 857.848 672.777 857.848Z" fill="#02FFD6"/>
<path d="M634.024 862.232C646.432 862.232 646.432 880.837 634.024 880.837C621.616 880.837 621.616 862.232 634.024 862.232Z" fill="#02FFD6"/>
<path d="M556.557 854.573C568.965 854.573 568.965 873.179 556.557 873.179C544.149 873.179 544.149 854.573 556.557 854.573Z" fill="#02FFD6"/>
<path d="M517.817 867.157C530.225 867.157 530.225 885.763 517.817 885.763C505.409 885.763 505.409 867.157 517.817 867.157Z" fill="#02FFD6"/>
<path d="M479.078 851.353C491.486 851.353 491.486 869.958 479.078 869.958C466.669 869.958 466.669 851.353 479.078 851.353Z" fill="#02FFD6"/>
<path d="M459.714 864.614C472.136 864.614 472.136 883.219 459.714 883.219C447.319 883.219 447.319 864.614 459.714 864.614Z" fill="#02FFD6"/>
<path d="M420.974 852.936C433.382 852.936 433.382 871.541 420.974 871.541C408.566 871.541 408.566 852.936 420.974 852.936Z" fill="#02FFD6"/>
<path d="M382.248 855.317C394.656 855.317 394.656 873.923 382.248 873.923C369.839 873.923 369.839 855.317 382.248 855.317Z" fill="#02FFD6"/>
<path d="M362.871 866.061C375.279 866.061 375.279 884.667 362.871 884.667C350.462 884.667 350.462 866.061 362.871 866.061Z" fill="#02FFD6"/>
<path d="M324.13 860.595C336.538 860.595 336.538 879.2 324.13 879.2C311.722 879.2 311.722 860.595 324.13 860.595Z" fill="#02FFD6"/>
<path d="M401.611 869.904C408.904 869.904 408.904 880.851 401.611 880.851C394.317 880.851 394.317 869.904 401.611 869.904Z" fill="#02FFD6"/>
<path d="M266.028 872.272C273.321 872.272 273.321 883.219 266.028 883.219C258.734 883.219 258.734 872.272 266.028 872.272Z" fill="#02FFD6"/>
<path d="M304.768 873.788C312.061 873.788 312.061 884.734 304.768 884.734C297.475 884.734 297.475 873.788 304.768 873.788Z" fill="#02FFD6"/>
<path d="M207.924 859.147C215.217 859.147 215.217 870.094 207.924 870.094C200.631 870.094 200.631 859.147 207.924 859.147Z" fill="#02FFD6"/>
<path d="M440.351 872.272C447.644 872.272 447.644 883.219 440.351 883.219C433.058 883.219 433.058 872.272 440.351 872.272Z" fill="#02FFD6"/>
<path d="M498.454 866.805C505.748 866.805 505.748 877.752 498.454 877.752C491.161 877.752 491.161 866.805 498.454 866.805Z" fill="#02FFD6"/>
<path d="M575.92 872.272C583.214 872.272 583.214 883.219 575.92 883.219C568.627 883.219 568.627 872.272 575.92 872.272Z" fill="#02FFD6"/>
<path d="M595.297 859.877C606.717 859.877 606.717 877.008 595.297 877.008C583.876 877.008 583.876 859.877 595.297 859.877Z" fill="#02FFD6"/>
<path d="M614.66 873.788C621.954 873.788 621.954 884.734 614.66 884.734C607.367 884.734 607.367 873.788 614.66 873.788Z" fill="#02FFD6"/>
<path d="M537.18 870.987C544.473 870.987 544.473 881.933 537.18 881.933C529.887 881.933 529.887 870.987 537.18 870.987Z" fill="#02FFD6"/>
<path d="M653.401 870.987C660.694 870.987 660.694 881.933 653.401 881.933C646.107 881.933 646.107 870.987 653.401 870.987Z" fill="#02FFD6"/>
<path d="M711.503 862.232C718.797 862.232 718.797 873.179 711.503 873.179C704.21 873.179 704.21 862.232 711.503 862.232Z" fill="#02FFD6"/>
<path d="M692.126 873.179C699.42 873.179 699.42 884.125 692.126 884.125C684.833 884.125 684.833 873.179 692.126 873.179Z" fill="#02FFD6"/>
<path d="M343.507 866.061C350.8 866.061 350.8 877.008 343.507 877.008C336.214 877.008 336.214 866.061 343.507 866.061Z" fill="#02FFD6"/>
<path d="M285.405 857.51C297.813 857.51 297.813 876.115 285.405 876.115C272.997 876.115 272.997 857.51 285.405 857.51Z" fill="#02FFD6"/>
<path d="M246.664 849.837C259.059 849.837 259.059 868.443 246.664 868.443C234.242 868.443 234.242 849.837 246.664 849.837Z" fill="#02FFD6"/>
<path d="M227.301 862.232C239.709 862.232 239.709 880.837 227.301 880.837C214.893 880.837 214.893 862.232 227.301 862.232Z" fill="#02FFD6"/>
<path d="M837.75 816.388C837.75 841.353 817.304 861.812 792.312 861.812H125.438C100.446 861.812 80 841.353 80 816.388V366.014C80 341.008 100.446 320.562 125.438 320.562H792.299C817.304 320.562 837.75 341.008 837.75 366.014V816.388Z" fill="url(#paint2_linear_52_676)"/>
<path d="M775.845 819.081H141.892C122.502 819.081 122.502 363.294 141.892 363.294H775.845C795.222 363.294 795.222 819.081 775.845 819.081Z" fill="#1A1626"/>
<path d="M142.907 808.459C211.348 808.459 279.762 808.459 348.176 808.459C326.865 667.247 326.865 515.155 348.176 373.943C279.762 373.943 211.348 373.943 142.907 373.943C88.7822 515.142 88.7822 667.247 142.907 808.459Z" fill="white"/>
<path d="M356.241 808.459C424.722 808.459 493.082 808.459 561.51 808.459C577.936 667.247 577.936 515.155 561.51 373.943C493.082 373.943 424.722 373.943 356.241 373.943C339.8 515.142 339.8 667.247 356.241 808.459Z" fill="white"/>
<path d="M569.574 808.459C638.015 808.459 706.402 808.459 774.843 808.459C828.955 667.247 828.955 515.155 774.843 373.943C706.402 373.943 638.015 373.943 569.574 373.943C590.886 515.142 590.886 667.247 569.574 808.459Z" fill="white"/>
<defs>
<linearGradient id="paint0_linear_52_676" x1="550.706" y1="246.273" x2="367.03" y2="246.273" gradientUnits="userSpaceOnUse">
<stop stop-color="#89969C"/>
<stop offset="0.5" stop-color="#B4BDC2"/>
<stop offset="1" stop-color="#89969C"/>
</linearGradient>
<linearGradient id="paint1_linear_52_676" x1="576.731" y1="263.643" x2="340.993" y2="263.643" gradientUnits="userSpaceOnUse">
<stop stop-color="#99A8AE"/>
<stop offset="0.5" stop-color="#C1CACF"/>
<stop offset="1" stop-color="#99A8AE"/>
</linearGradient>
<linearGradient id="paint2_linear_52_676" x1="402.438" y1="911.352" x2="515.344" y2="271.03" gradientUnits="userSpaceOnUse">
<stop stop-color="#99A8AE"/>
<stop offset="0.3576" stop-color="#A9B6BC"/>
<stop offset="1" stop-color="#CFD8DD"/>
</linearGradient>
</defs>
</svg>
